# xmcd CD database file
#
# Track frame offsets:
#	150
#	15653
#	30371
#	46693
#	63598
#	81159
#	101454
#	115186
#	135525
#	153659
#	166779
#	183637
#
# Disc length: 2698 seconds
#
# Revision: 0
# Processed by: cddbd v1.5.2PL0 Copyright (c) Steve Scherf et al.
# Submitted via: CDex 1.51
#
DISCID=8e0a880c
DTITLE=Robinella - Fly Away Bird
DYEAR=2010
DGENRE=Jazz
TTITLE0=Left, Right, Back Together
TTITLE1=Husbands and Wives
TTITLE2=Everlasting Peace of Mind
TTITLE3=These Dreams of Mine
TTITLE4=Fly Away Bird
TTITLE5=Surrender All
TTITLE6=Closer
TTITLE7=Maybe Maybelline
TTITLE8=I Don't Love You Anymore
TTITLE9=Someday
TTITLE10=Can I Go Too
TTITLE11=While the Years Roll On
EXTD=YEAR: 2010
EXTT0=
EXTT1=
EXTT2=
EXTT3=
EXTT4=
EXTT5=
EXTT6=
EXTT7=
EXTT8=
EXTT9=
EXTT10=
EXTT11=
PLAYORDER=
